<svg xmlns="http://www.w3.org/2000/svg" viewBox="0 0 57 57"><title>WSAsset 7</title><g id="Layer_2" data-name="Layer 2"><g id="Layer_1-2" data-name="Layer 1"><rect x="1" y="1" width="55" height="55" rx="15.95" ry="15.95" style="fill:#efa555"/><path d="M40.05,2A15,15,0,0,1,55,17v23.1a15,15,0,0,1-15,15H17A15,15,0,0,1,2,40.05V17A15,15,0,0,1,17,2h23.1m0-2H17A17,17,0,0,0,0,17v23.1A17,17,0,0,0,17,57h23.1a17,17,0,0,0,17-17V17A17,17,0,0,0,40.05,0Z" style="fill:#f9dbbb"/><path d="M49.88,19.91a12.79,12.79,0,0,0-.51-3.07,13,13,0,0,0-4.56-6.54,12.35,12.35,0,0,0-8-3c-1.1,0-2.2-.39-3.31-.39-2.14,0-2.14.73-4.29.73-4.54,0-4.54,0-9.08,0-.82,0-1.71-.26-2.27-.21a13.42,13.42,0,0,0-7.74,4.38c-2,2.36-2.56,5.2-2.56,8.31,0,4.3-.39,8.59-.39,12.89,0,1.77.21,1.77.21,3.55a13.75,13.75,0,0,0,0,3.26A13,13,0,0,0,12,46.63a12.36,12.36,0,0,0,8,2.69c2.37,0,4.75.06,7.12.06,4.79,0,4.79,0,9.58,0a11.78,11.78,0,0,0,3.73-.78,12.62,12.62,0,0,0,6.66-4.28,12.58,12.58,0,0,0,2.41-7.5c0-4.51.33-9,.33-13.51C50,21.59,49.88,21.58,49.88,19.91ZM25.64,45.42c-2.72,0-2.72.11-5.43.11a9,9,0,0,1-6-1.73,9.12,9.12,0,0,1-3.12-5.17,10.77,10.77,0,0,1,.15-2.12c0-5.44-.72-10.89-.72-16.33a9.94,9.94,0,0,1,1.71-5.65A9.57,9.57,0,0,1,18.37,11c.54-.11,1.32.07,1.74-.06s.58-.43,1.15-.43c7.67,0,13.12.38,15.33.38a9.16,9.16,0,0,1,6.76,2.62,9,9,0,0,1,2,4.84,8.38,8.38,0,0,1,.41,1.85c0,8.15.17,8.15.18,16.29a9.07,9.07,0,0,1-1.06,4.28,9.17,9.17,0,0,1-6.12,4.9,9.2,9.2,0,0,1-2.32.44C31.06,45.77,31.07,45.42,25.64,45.42Z" style="fill:#fff"/><path d="M28.35,17.14a11.2,11.2,0,0,0-7.91,19.12,14.45,14.45,0,0,0,9,3.82c6.06,0,10.13-5.66,10.13-11.73A11.34,11.34,0,0,0,28.35,17.14Zm7.17,11.21c0,2-.29,4.1-1.68,5.49s-1.72,1.55-2.67,1.78c-.43.11-2.82.15-2.82.15a7.21,7.21,0,0,1-5.1-2.32,7.41,7.41,0,0,1-2.48-5.11c0-4.07,4.24-8,6.84-7.86a.65.65,0,0,1,.21.1,2.88,2.88,0,0,0,1.27.52A7.13,7.13,0,0,1,35.52,28.35Z" style="fill:#fff"/><path d="M39.37,20s0,.07,0,.07a2.74,2.74,0,0,0,2.73-2.7,2.83,2.83,0,0,0-.77-2,2.71,2.71,0,0,0-2-.72,2.74,2.74,0,0,0-2.77,2.67,3.55,3.55,0,0,0,.8,2.29C37.92,20.11,38.64,20,39.37,20Z" style="fill:#fff"/></g></g></svg>