<svg xmlns="http://www.w3.org/2000/svg" viewBox="0 0 57 57"><title>WSAsset 9</title><g id="Layer_2" data-name="Layer 2"><g id="Layer_1-2" data-name="Layer 1"><rect x="1" y="1" width="55" height="55" rx="15.95" ry="15.95" style="fill:#d65c5e"/><path d="M40.05,2A15,15,0,0,1,55,17v23.1a15,15,0,0,1-15,15H17A15,15,0,0,1,2,40.05V17A15,15,0,0,1,17,2h23.1m0-2H17A17,17,0,0,0,0,17v23.1A17,17,0,0,0,17,57h23.1a17,17,0,0,0,17-17V17A17,17,0,0,0,40.05,0Z" style="fill:#eebebf"/><path d="M20.7,47.38l-.07-.65c0-.42-.09-.84-.12-1.26-.23-3.15.7-5.77,1.69-9.69.32-1.24.06-3.14.38-4.38l.71-2.75c0-.15.07-.49.1-.84a3.6,3.6,0,0,0-.23-1.59,6.27,6.27,0,0,1,0-4.43,6.66,6.66,0,0,1,2.25-3.62,4.27,4.27,0,0,1,5.7.43,3.65,3.65,0,0,1,.9,2.6,11.51,11.51,0,0,1-.59,3.34l-.67,1.35c-.32,1.11-.37,2.24-.66,3.38a4.66,4.66,0,0,0-.08,1.5,1.49,1.49,0,0,0,1.25,1.42,4.73,4.73,0,0,0,1.26.18,4.19,4.19,0,0,0,3.27-1.74A10,10,0,0,0,38.22,26,18.76,18.76,0,0,0,38.1,19c-.57-2.48-2.23-3.66-4.81-4.5-.87-.28-2.06.13-2.94.13a9.14,9.14,0,0,0-4.6,1.16c-1.61.88-3.3,1.8-4.21,3.32a9.12,9.12,0,0,0-.81,5.79,4.49,4.49,0,0,0,.67,1.84A10,10,0,0,1,22.09,28,4.37,4.37,0,0,1,21.66,32a1.21,1.21,0,0,1-1.05.58h-.16l-.11,0c-2.8-.67-4.28-3-5-5.58-1.14-4.37-.8-7.82,1.73-11.35A15.24,15.24,0,0,1,24.78,10a22.09,22.09,0,0,1,4.46-1.2c1.6-.18,2.82.36,4.34.62,9.28,1.53,13.77,11.09,10.8,19.8a15.32,15.32,0,0,1-1.85,3.71,14,14,0,0,1-1.18,1.49c-2.21,2.45-3.75,3.87-7,3.87l-2.5-.16c-1.59,0-2-.53-3.32-1.44l-.47-.33c0,.13,0,.25-.08.38a35.58,35.58,0,0,1-2.46,6.39c-.94,2.15-1.46,3.54-2.94,4.71l-.29.22s-1,.65-1.36-.42C20.86,47.33,20.7,47.38,20.7,47.38Z" style="fill:#fff"/></g></g></svg>