<svg xmlns="http://www.w3.org/2000/svg" viewBox="0 0 57 57"><title>WSAsset 8</title><g id="Layer_2" data-name="Layer 2"><g id="Layer_1-2" data-name="Layer 1"><rect x="1" y="1" width="55" height="55" rx="15.95" ry="15.95" style="fill:#a1babc"/><path d="M40.05,2A15,15,0,0,1,55,17v23.1a15,15,0,0,1-15,15H17A15,15,0,0,1,2,40.05V17A15,15,0,0,1,17,2h23.1m0-2H17A17,17,0,0,0,0,17v23.1A17,17,0,0,0,17,57h23.1a17,17,0,0,0,17-17V17A17,17,0,0,0,40.05,0Z" style="fill:#dae3e4"/><path d="M37.9,42.66c-1.4,0-2.12-.06-2.81-.11s-1.36-.1-2.73-.1-2.08,0-2.78,0l-2.76,0c-1.36,0-2.07.05-2.82.1s-1.49.11-2.89.11a19.32,19.32,0,0,1-3.05-.2,20,20,0,0,0-2.92-.18c-2.34,0-4-.53-5.09-1.67a6.49,6.49,0,0,1-1.9-4.86c0-1.33.07-2.06.13-2.78s.12-1.4.12-2.69,0-1.95-.07-2.59S8.26,26.31,8.26,25a15.43,15.43,0,0,0-.21-2.76,15.36,15.36,0,0,1-.23-2.91A7.47,7.47,0,0,1,10,14.21a7.13,7.13,0,0,1,5.11-1.86H23.7c2.41,0,3.64.05,4.83.09s2.4.09,4.8.09a37.74,37.74,0,0,0,4.23-.21,39.31,39.31,0,0,1,4.33-.21,7.07,7.07,0,0,1,5,2.18,6.87,6.87,0,0,1,1.86,5c0,1.83,0,2.75,0,3.67s0,1.84,0,3.69c0,2.18.09,3.29.17,4.36s.17,2.22.17,4.44a7.13,7.13,0,0,1-2.26,5,6.78,6.78,0,0,1-5,1.83,10.19,10.19,0,0,0-1.92.16A11.29,11.29,0,0,1,37.9,42.66ZM12,20.74a.26.26,0,0,0-.26.23,18.42,18.42,0,0,0-.2,2.58c0,2,0,3,.07,3.95s.07,2,.07,4a7.24,7.24,0,0,0,.21,1.88,7.91,7.91,0,0,1,.23,2.14,3.07,3.07,0,0,0,.9,2.18,3,3,0,0,0,2.12.88c1.71,0,2.58.07,3.43.13s1.68.13,3.37.13h6.8c2.42,0,3.65,0,4.83.09s2.4.09,4.8.09a6,6,0,0,0,1.64-.2,7.3,7.3,0,0,1,1.79-.22,3.15,3.15,0,0,0,3.12-3.14c0-1.49,0-2.25.08-3s.09-1.46.09-2.93A20.87,20.87,0,0,1,45.23,27a22,22,0,0,0,.12-2.47c0-1.37-.08-2.73-.15-3.63a.36.36,0,0,0-.37-.35.53.53,0,0,0-.17,0c-1.35.69-3.38,1.75-5.4,2.88-1.63.91-2.45,1.36-3.28,1.8s-1.64.89-3.27,1.8l-.15.09a8.54,8.54,0,0,1-4.07,1.46,6.79,6.79,0,0,1-3.38-1.26l-.72-.42a30.84,30.84,0,0,0-3.5-1.68,30.08,30.08,0,0,1-3.6-1.72c-2.06-1.14-4.11-2.22-5.15-2.76A.28.28,0,0,0,12,20.74Zm1-3.67a10.22,10.22,0,0,0,3.14,1.54A17.08,17.08,0,0,1,19.41,20c1.67.92,2.54,1.36,3.38,1.78s1.74.87,3.43,1.8a6.82,6.82,0,0,0,3.18.95,3.35,3.35,0,0,0,1.68-.42c1.74-1,2.6-1.49,3.44-2s1.71-1,3.46-2l.74-.41a32.08,32.08,0,0,0,4.9-3.15,3.27,3.27,0,0,0-1.73-.35c-2.22,0-3.34-.06-4.43-.13S35.27,16,33.09,16h-3.2l-3.18,0c-1.61,0-2.43,0-3.22-.08s-1.58-.09-3.16-.09a14,14,0,0,0-2.52.2,14.27,14.27,0,0,1-2.67.21A3.71,3.71,0,0,0,13,17.07Z" style="fill:#fff"/></g></g></svg>